<svg width="46" height="32" viewBox="0 0 46 32" fill="none" xmlns="http://www.w3.org/2000/svg">
<path d="M37.3528 14.4809C35.9868 14.4809 34.6986 14.8121 33.5486 15.3861L30.0783 9.33923L31.3291 5.2864L33.9422 5.44814C33.9885 5.45098 34.0349 5.45231 34.0809 5.45231C34.6629 5.45231 35.2305 5.22609 35.6564 4.82049C36.1157 4.38248 36.3792 3.7651 36.3792 3.1259V2.32608C36.3792 1.68688 36.1155 1.06948 35.6564 0.631491C35.197 0.193859 34.5721 -0.0336745 33.9424 0.00404235L27.489 0.403754C26.2799 0.478654 25.3324 1.4988 25.3324 2.72599C25.3324 3.95336 26.2797 4.97351 27.489 5.04822L30.1467 5.2128L29.0637 8.72222L15.1526 8.72241L16.4859 3.15128C16.5274 2.9776 16.4881 2.79424 16.3792 2.65393C16.27 2.51342 16.1035 2.43151 15.9271 2.43151H9.68748C9.62029 2.43151 9.55796 2.44876 9.49806 2.47019C7.55539 2.55988 6.00094 4.18449 6.00094 6.1745C6.00094 8.22179 7.64504 9.88735 9.66596 9.88735C9.98359 9.88735 10.241 9.62663 10.241 9.30485C10.241 8.98308 9.98359 8.72235 9.66596 8.72235C8.27921 8.72235 7.15093 7.57934 7.15093 6.1745C7.15093 4.76966 8.27921 3.62665 9.66596 3.62665C9.71818 3.62665 9.76516 3.60977 9.81326 3.5965H15.1962L12.383 15.3523C11.2502 14.7994 9.98619 14.4803 8.64698 14.4803C3.87873 14.4803 0 18.4099 0 23.2401C0 28.0706 3.87897 31.9999 8.64698 31.9999C13.4148 31.9999 17.294 28.0703 17.294 23.2401C17.294 20.1985 15.7541 17.5165 13.4245 15.9452L14.2341 12.5625L22.5868 23.428C22.1932 23.8983 21.9463 24.4988 21.9463 25.1623C21.9463 26.2689 22.6087 27.22 23.5519 27.6352L23.1302 29.4074H22.1378C21.8202 29.4074 21.5628 29.6681 21.5628 29.9899C21.5628 30.3117 21.8202 30.5724 22.1378 30.5724H25.1695C25.4871 30.5724 25.7445 30.3117 25.7445 29.9899C25.7445 29.6681 25.4871 29.4074 25.1695 29.4074H24.3132L24.6834 27.8516C26.0659 27.8116 27.179 26.7021 27.2556 25.3111L28.8991 25.0707C29.7328 29.0245 33.2049 32 37.353 32C42.1213 31.9998 46 28.0704 46 23.2402C46 18.4101 42.121 14.4804 37.353 14.4804L37.3528 14.4809ZM26.4825 2.7265C26.4825 2.11386 26.9555 1.60456 27.5593 1.56679L34.0127 1.16708C34.0372 1.16576 34.061 1.16481 34.0851 1.16481C34.3777 1.16481 34.6533 1.27535 34.8688 1.48052C35.1012 1.70218 35.2295 2.00273 35.2295 2.3264V3.12623C35.2295 3.4499 35.1012 3.75042 34.8688 3.97211C34.6357 4.19377 34.3325 4.30223 34.0128 4.28555L27.5595 3.88621C26.9558 3.84867 26.4828 3.33934 26.4828 2.7265L26.4825 2.7265ZM16.144 23.2407C16.144 27.4285 12.7811 30.8355 8.64706 30.8355C4.51317 30.8355 1.15007 27.4285 1.15007 23.2407C1.15007 19.0529 4.51336 15.6459 8.64706 15.6459C9.89494 15.6459 11.0702 15.9608 12.1064 16.5094L11.7528 17.9867L9.68474 20.8309C9.36636 20.6897 9.01635 20.6087 8.64706 20.6087C7.21446 20.6087 6.0489 21.7894 6.0489 23.2404C6.0489 24.6917 7.21441 25.8728 8.64706 25.8728C10.0797 25.8728 11.2452 24.6919 11.2452 23.2404C11.2452 22.5843 10.9985 21.991 10.6051 21.5297L12.7473 18.5833C12.7926 18.5209 12.825 18.4501 12.843 18.3751L13.1316 17.1687C14.9563 18.5555 16.1441 20.7574 16.1441 23.2408L16.144 23.2407ZM10.0951 23.2407C10.0951 24.05 9.44539 24.7081 8.64691 24.7081C7.84844 24.7081 7.19874 24.0499 7.19874 23.2407C7.19874 22.4318 7.84844 21.774 8.64691 21.774C9.44558 21.774 10.0951 22.4318 10.0951 23.2407ZM14.8742 9.88785H28.7038L24.8153 22.4873C24.7456 22.4818 24.679 22.4661 24.6081 22.4661C24.2111 22.4661 23.8375 22.5605 23.4987 22.7192L14.58 11.1168L14.8742 9.88785ZM24.6079 26.6949C23.7744 26.6949 23.0961 26.0078 23.0961 25.163C23.0961 24.3183 23.7744 23.6311 24.6079 23.6311C25.4417 23.6311 26.1201 24.3182 26.1201 25.163C26.1201 26.0077 25.4418 26.6949 24.6079 26.6949ZM27.0748 24.1611C26.8491 23.593 26.4354 23.1285 25.9151 22.8281L29.6129 10.8465L32.5489 15.9619C30.2334 17.5353 28.7055 20.21 28.7055 23.2407C28.7055 23.4692 28.7223 23.6935 28.7393 23.9176L27.0748 24.1611ZM37.3524 21.7738C38.1509 21.7738 38.8006 22.4316 38.8006 23.2405C38.8006 24.0498 38.1509 24.7079 37.3524 24.7079C36.5539 24.7079 35.9042 24.0497 35.9042 23.2405C35.9042 22.4316 36.5537 21.7738 37.3524 21.7738ZM34.7746 23.0348L29.8809 23.7506C29.8697 23.5812 29.8555 23.4127 29.8555 23.2405C29.8555 20.6391 31.1543 18.3407 33.1282 16.9713L35.6124 21.2997C35.137 21.7373 34.8281 22.3477 34.7746 23.0347L34.7746 23.0348ZM37.3524 30.8354C33.7832 30.8354 30.7936 28.2934 30.0423 24.9041L34.9355 24.1883C35.3125 25.1713 36.2504 25.8729 37.3524 25.8729C38.785 25.8729 39.9506 24.6919 39.9506 23.2404C39.9506 21.7893 38.7851 20.6088 37.3524 20.6088C37.0947 20.6088 36.8506 20.6586 36.6153 20.7297L34.1274 16.3949C35.106 15.9199 36.1968 15.6457 37.3524 15.6457C41.4862 15.6459 44.8494 19.0528 44.8494 23.2405C44.8494 27.4283 41.4861 30.8354 37.3524 30.8354L37.3524 30.8354Z" fill="#2B2B2B"/>
</svg>
