<svg width="46" height="46" viewBox="0 0 46 46" fill="none" xmlns="http://www.w3.org/2000/svg">
<path d="M3.21248 13.3031H4.30297V19.6061C4.30297 19.9237 4.56014 20.1811 4.87797 20.1811H16.1302C16.4481 20.1811 16.7052 19.9237 16.7052 19.6061V13.1373H29.2944V19.6061C29.2944 19.9237 29.5516 20.1811 29.8694 20.1811H41.1217C41.4395 20.1811 41.6967 19.9237 41.6967 19.6061V13.3031H42.7871C44.5588 13.3031 45.9996 11.8619 45.9996 10.0906C45.9996 8.31901 44.5588 6.87796 42.7871 6.87796H41.6967V0.575C41.6967 0.257365 41.4395 0 41.1217 0H29.8694C29.5516 0 29.2944 0.257365 29.2944 0.575V7.04375H16.7052V0.575C16.7052 0.257365 16.4481 0 16.1302 0H4.87797C4.56014 0 4.30297 0.257365 4.30297 0.575V6.87796H3.21248C1.44085 6.87796 0 8.31901 0 10.0906C0 11.8619 1.44085 13.3031 3.21248 13.3031ZM42.7873 8.02796C43.9244 8.02796 44.8498 8.95333 44.8498 10.0906C44.8498 11.2279 43.9244 12.1531 42.7873 12.1531H41.6968V8.02796H42.7873ZM40.5468 19.0311H36.0704V1.15H40.5468V19.0311ZM30.4446 1.15H34.9205V19.0311H30.4446V1.15ZM29.2946 8.19375V11.9872H16.7054V8.19375H29.2946ZM15.5554 19.0311H11.0795V1.15H15.5554V19.0311ZM5.45316 1.15H9.92963V19.0311H5.45316V1.15ZM3.21267 8.02796H4.30316V12.1531H3.21267C2.07561 12.1531 1.15019 11.2281 1.15019 10.0906C1.15019 8.95318 2.07556 8.02796 3.21267 8.02796Z" fill="#2B2B2B"/>
<path d="M3.21248 39.122H4.30297V45.425C4.30297 45.7426 4.56014 46 4.87797 46H16.1302C16.4481 46 16.7052 45.7426 16.7052 45.425V38.9562H29.2944V45.425C29.2944 45.7426 29.5516 46 29.8694 46H41.1217C41.4395 46 41.6967 45.7426 41.6967 45.425V39.122H42.7871C44.5588 39.122 45.9996 37.681 45.9996 35.9094C45.9996 34.1381 44.5588 32.6969 42.7871 32.6969H41.6967V26.3939C41.6967 26.0763 41.4395 25.8189 41.1217 25.8189H29.8694C29.5516 25.8189 29.2944 26.0763 29.2944 26.3939V32.8627H16.7052V26.3939C16.7052 26.0763 16.4481 25.8189 16.1302 25.8189H4.87797C4.56014 25.8189 4.30297 26.0763 4.30297 26.3939V32.6969H3.21248C1.44085 32.6969 0 34.1381 0 35.9094C0 37.681 1.44085 39.122 3.21248 39.122ZM42.7873 33.8469C43.9244 33.8469 44.8498 34.7719 44.8498 35.9094C44.8498 37.0468 43.9244 37.972 42.7873 37.972H41.6968V33.8469H42.7873ZM40.5468 44.85H36.0704V26.9689H40.5468V44.85ZM30.4446 26.9689H34.9205V44.85H30.4446V26.9689ZM29.2946 34.0127V37.8062H16.7054V34.0127H29.2946ZM15.5554 44.85H11.0795V26.9689H15.5554V44.85ZM5.45316 26.9689H9.92963V44.85H5.45316V26.9689ZM3.21267 33.8469H4.30316V37.972H3.21267C2.07561 37.972 1.15019 37.0467 1.15019 35.9094C1.15019 34.7721 2.07556 33.8469 3.21267 33.8469Z" fill="#2B2B2B"/>
</svg>
