<svg width="46" height="46" viewBox="0 0 46 46" fill="none" xmlns="http://www.w3.org/2000/svg">
<path d="M18.2572 22.2166H22.9566C26.2134 22.2166 28.3175 20.2815 28.3175 17.2874C28.3175 14.2199 26.2634 12.3146 22.9566 12.3146H18.2572C17.9394 12.3146 17.6822 12.5719 17.6822 12.8896V21.6416C17.6822 21.959 17.9394 22.2166 18.2572 22.2166ZM18.8322 13.4641H22.9566C25.5935 13.4641 27.1674 14.8932 27.1674 17.2869C27.1674 19.618 25.5542 21.0662 22.9566 21.0662H18.8322V13.4641Z" fill="#2B2B2B"/>
<path d="M12.2648 38.8585H18.2141C18.5319 38.8585 18.7891 38.6011 18.7891 38.2835V27.347H23.69C29.9431 27.347 34.3103 23.1923 34.3103 17.2438C34.3103 11.2953 29.9433 7.14102 23.69 7.14102L12.2648 7.14121C11.9469 7.14121 11.6898 7.39857 11.6898 7.71621V38.2837C11.6898 38.6011 11.9469 38.8585 12.2648 38.8585ZM12.8398 8.29102H23.69C29.2661 8.29102 33.1603 11.9726 33.1603 17.2438C33.1603 22.5989 29.3542 26.197 23.69 26.197H18.2141C17.8963 26.197 17.6391 26.4544 17.6391 26.772V37.7085H12.8398V8.29102Z" fill="#2B2B2B"/>
<path d="M45.425 0H0.575C0.257178 0 0 0.257365 0 0.575V45.425C0 45.7426 0.257178 46 0.575 46H45.425C45.7428 46 46 45.7426 46 45.425V0.575C46 0.257365 45.7428 0 45.425 0ZM44.85 44.85H1.15V1.15H44.85V44.85Z" fill="#2B2B2B"/>
</svg>
