<svg width="44" height="44" viewBox="0 0 44 44" fill="none" xmlns="http://www.w3.org/2000/svg">
<path d="M21.9602 21.8423C17.5575 21.8423 13.9746 25.4245 13.9746 29.827C13.9746 34.2294 17.5568 37.8125 21.9602 37.8125C26.3634 37.8125 29.9448 34.2304 29.9448 29.827C29.9448 25.4238 26.3628 21.8423 21.9602 21.8423ZM21.9602 36.7125C18.1635 36.7125 15.0746 33.6237 15.0746 29.827C15.0746 26.0309 18.1634 22.9423 21.9602 22.9423C25.7563 22.9423 28.8448 26.0311 28.8448 29.827C28.8448 33.6236 25.756 36.7125 21.9602 36.7125Z" fill="#2B2B2B"/>
<path d="M11.1013 20.3674C9.3462 20.3674 7.9184 21.7952 7.9184 23.5503C7.9184 25.3054 9.3462 26.7332 11.1013 26.7332C12.8564 26.7332 14.2842 25.3054 14.2842 23.5503C14.284 21.7952 12.8562 20.3674 11.1013 20.3674ZM11.1013 25.6328C9.95294 25.6328 9.0184 24.6983 9.0184 23.5499C9.0184 22.4015 9.95281 21.467 11.1013 21.467C12.2497 21.467 13.1842 22.4014 13.1842 23.5499C13.184 24.6984 12.2496 25.6328 11.1013 25.6328Z" fill="#2B2B2B"/>
<path d="M32.819 20.3674C31.0639 20.3674 29.6361 21.7952 29.6361 23.5503C29.6361 25.3054 31.0639 26.7332 32.819 26.7332C34.5741 26.7332 36.0019 25.3054 36.0019 23.5503C36.0017 21.7952 34.5739 20.3674 32.819 20.3674ZM32.819 25.6328C31.6706 25.6328 30.7361 24.6983 30.7361 23.5499C30.7361 22.4015 31.6705 21.467 32.819 21.467C33.9673 21.467 34.9019 22.4014 34.9019 23.5499C34.9017 24.6984 33.9673 25.6328 32.819 25.6328Z" fill="#2B2B2B"/>
<path d="M17.7769 20.8711C17.9266 20.8711 18.0783 20.8584 18.2295 20.8326C19.9592 20.5356 21.0769 18.6069 20.721 16.5332C20.5522 15.5498 20.0802 14.6743 19.3916 14.0675C18.6701 13.4318 17.7988 13.1634 16.9386 13.3102C16.0784 13.4581 15.3465 14.0022 14.8783 14.8426C14.4318 15.6445 14.2782 16.6269 14.4472 17.6102C14.7721 19.5015 16.2127 20.8711 17.7769 20.8711L17.7769 20.8711ZM15.8392 15.3771C16.1424 14.8332 16.5987 14.4839 17.1245 14.3936C17.2148 14.3782 17.305 14.3705 17.3951 14.3705C17.8346 14.3705 18.2772 14.5505 18.6644 14.8919C19.165 15.333 19.5104 15.9815 19.6368 16.7184C19.8898 18.1946 19.1754 19.5537 18.0433 19.7479C16.9115 19.9454 15.785 18.8993 15.5309 17.4226C15.4047 16.6863 15.5141 15.9597 15.8392 15.3771L15.8392 15.3771Z" fill="#2B2B2B"/>
<path d="M25.2748 20.7208C25.5339 20.7999 25.7972 20.8373 26.0597 20.8373C27.499 20.8373 28.9137 19.7016 29.4334 17.9993C29.7249 17.045 29.6968 16.0506 29.3549 15.1991C28.9962 14.3064 28.3385 13.6744 27.5036 13.4193C25.8244 12.9067 23.9599 14.1283 23.3456 16.1407C23.0542 17.0944 23.0823 18.0888 23.4242 18.9401C23.7827 19.8342 24.44 20.4662 25.2748 20.7208ZM24.3975 16.4626C24.7726 15.2334 25.7449 14.4017 26.7074 14.4017C26.8669 14.4017 27.0259 14.4248 27.182 14.4721C27.6925 14.6277 28.101 15.0319 28.3338 15.6095C28.583 16.2288 28.5995 16.963 28.381 17.6781C27.9438 19.1102 26.697 20.0047 25.5963 19.6679C25.0858 19.5123 24.6773 19.108 24.4451 18.5305C24.1957 17.9119 24.1793 17.1771 24.3975 16.4626Z" fill="#2B2B2B"/>
<path d="M43.45 1.1C43.7536 1.1 44 0.853646 44 0.55C44 0.246354 43.7536 0 43.45 0H0.55C0.246354 0 0 0.246354 0 0.55C0 0.853646 0.246354 1.1 0.55 1.1H8.67075V3.09375H3.80417C3.50052 3.09375 3.25417 3.3401 3.25417 3.64375V43.45C3.25417 43.7536 3.50052 44 3.80417 44H40.1958C40.4995 44 40.7458 43.7536 40.7458 43.45L40.746 3.64375C40.746 3.3401 40.4997 3.09375 40.196 3.09375H35.3294V1.1H43.45ZM39.6457 4.19375V42.9H4.35398V4.19375H8.67038V6.29924C7.56823 6.55061 6.74144 7.53459 6.74144 8.71214C6.74144 10.0794 7.85363 11.1916 9.22038 11.1916C10.5877 11.1916 11.6999 10.0794 11.6999 8.71214C11.6999 7.53463 10.8733 6.55064 9.77038 6.29924V4.19375H34.2289V6.29924C33.1267 6.55061 32.2999 7.53459 32.2999 8.71214C32.2999 10.0794 33.4121 11.1916 34.7789 11.1916C36.1462 11.1916 37.2584 10.0794 37.2584 8.71214C37.2584 7.53463 36.4318 6.55064 35.3289 6.29924V4.19375H39.6457ZM9.22057 7.33315C9.98131 7.33315 10.6001 7.9519 10.6001 8.71209C10.6001 9.47283 9.98131 10.0916 9.22057 10.0916C8.46038 10.0916 7.84163 9.47283 7.84163 8.71209C7.84163 7.9519 8.46038 7.33315 9.22057 7.33315ZM34.7795 7.33315C35.5403 7.33315 36.159 7.9519 36.159 8.71209C36.159 9.47283 35.5403 10.0916 34.7795 10.0916C34.0193 10.0916 33.4006 9.47283 33.4006 8.71209C33.4002 7.9519 34.019 7.33315 34.7795 7.33315ZM34.2295 3.09375H9.77103V1.1H34.2295V3.09375Z" fill="#2B2B2B"/>
</svg>
